<svg width="1856" height="1200" viewBox="0 0 1856 1200" fill="none" xmlns="http://www.w3.org/2000/svg">
<g clip-path="url(#clip0_243_159)">
<line x1="169.5" y1="1.5" x2="169.5" y2="1198.5" stroke="#151515" stroke-width="3" stroke-linecap="round"/>
<line x1="356.5" y1="1.5" x2="356.5" y2="1198.5" stroke="#151515" stroke-width="3" stroke-linecap="round"/>
<line x1="543.5" y1="1.5" x2="543.5" y2="1198.5" stroke="#151515" stroke-width="3" stroke-linecap="round"/>
<line x1="730.5" y1="1.5" x2="730.5" y2="1198.5" stroke="#151515" stroke-width="3" stroke-linecap="round"/>
<line x1="917.5" y1="1.5" x2="917.5" y2="1198.5" stroke="#151515" stroke-width="3" stroke-linecap="round"/>
<line x1="1104.5" y1="1.5" x2="1104.5" y2="1198.5" stroke="#151515" stroke-width="3" stroke-linecap="round"/>
<line x1="1291.5" y1="1.5" x2="1291.5" y2="1198.5" stroke="#151515" stroke-width="3" stroke-linecap="round"/>
<line x1="1478.5" y1="1.5" x2="1478.5" y2="1198.5" stroke="#151515" stroke-width="3" stroke-linecap="round"/>
<line x1="1665.5" y1="10.5" x2="1665.5" y2="1207.5" stroke="#151515" stroke-width="3" stroke-linecap="round"/>
<line x1="1.5" y1="120.5" x2="1854.5" y2="120.5" stroke="#151515" stroke-width="3" stroke-linecap="round"/>
<line x1="1.5" y1="242.5" x2="1854.5" y2="242.5" stroke="#151515" stroke-width="3" stroke-linecap="round"/>
<line x1="1.5" y1="364.5" x2="1854.5" y2="364.5" stroke="#151515" stroke-width="3" stroke-linecap="round"/>
<line x1="1.5" y1="486.5" x2="1854.5" y2="486.5" stroke="#151515" stroke-width="3" stroke-linecap="round"/>
<line x1="1.5" y1="608.5" x2="1854.5" y2="608.5" stroke="#151515" stroke-width="3" stroke-linecap="round"/>
<line x1="1.5" y1="730.5" x2="1854.5" y2="730.5" stroke="#151515" stroke-width="3" stroke-linecap="round"/>
<line x1="1.5" y1="852.5" x2="1854.5" y2="852.5" stroke="#151515" stroke-width="3" stroke-linecap="round"/>
<line x1="1.5" y1="976.5" x2="1854.5" y2="976.5" stroke="#151515" stroke-width="3" stroke-linecap="round"/>
<line x1="1.5" y1="1096.5" x2="1854.5" y2="1096.5" stroke="#151515" stroke-width="3" stroke-linecap="round"/>
<circle cx="917.5" cy="364.5" r="7.5" fill="#151515"/>
<circle cx="729.5" cy="363.5" r="7.5" fill="#151515"/>
<circle cx="542.5" cy="363.5" r="7.5" fill="#151515"/>
<circle cx="355.5" cy="363.5" r="7.5" fill="#151515"/>
<circle cx="168.5" cy="363.5" r="7.5" fill="#151515"/>
<circle cx="1104.5" cy="364.5" r="7.5" fill="#151515"/>
<circle cx="1291.5" cy="364.5" r="7.5" fill="#151515"/>
<circle cx="1478.5" cy="364.5" r="7.5" fill="#151515"/>
<circle cx="1665.5" cy="364.5" r="7.5" fill="#151515"/>
<circle cx="917.5" cy="244.5" r="7.5" fill="#151515"/>
<circle cx="729.5" cy="243.5" r="7.5" fill="#151515"/>
<circle cx="542.5" cy="243.5" r="7.5" fill="#151515"/>
<circle cx="355.5" cy="243.5" r="7.5" fill="#151515"/>
<circle cx="168.5" cy="243.5" r="7.5" fill="#151515"/>
<circle cx="1104.5" cy="244.5" r="7.5" fill="#151515"/>
<circle cx="1291.5" cy="244.5" r="7.5" fill="#151515"/>
<circle cx="1478.5" cy="244.5" r="7.5" fill="#151515"/>
<circle cx="1665.5" cy="244.5" r="7.5" fill="#151515"/>
<circle cx="916.5" cy="122.5" r="7.5" fill="#151515"/>
<circle cx="728.5" cy="121.5" r="7.5" fill="#151515"/>
<circle cx="541.5" cy="121.5" r="7.5" fill="#151515"/>
<circle cx="354.5" cy="121.5" r="7.5" fill="#151515"/>
<circle cx="167.5" cy="121.5" r="7.5" fill="#151515"/>
<circle cx="1103.5" cy="122.5" r="7.5" fill="#151515"/>
<circle cx="1290.5" cy="122.5" r="7.5" fill="#151515"/>
<circle cx="1477.5" cy="122.5" r="7.5" fill="#151515"/>
<circle cx="1664.5" cy="122.5" r="7.5" fill="#151515"/>
<circle cx="917.5" cy="488.5" r="7.5" fill="#151515"/>
<circle cx="729.5" cy="487.5" r="7.5" fill="#151515"/>
<circle cx="542.5" cy="487.5" r="7.5" fill="#151515"/>
<circle cx="355.5" cy="487.5" r="7.5" fill="#151515"/>
<circle cx="168.5" cy="487.5" r="7.5" fill="#151515"/>
<circle cx="1104.5" cy="488.5" r="7.5" fill="#151515"/>
<circle cx="1291.5" cy="488.5" r="7.5" fill="#151515"/>
<circle cx="1478.5" cy="488.5" r="7.5" fill="#151515"/>
<circle cx="1665.5" cy="488.5" r="7.5" fill="#151515"/>
<circle cx="917.5" cy="608.5" r="7.5" fill="#151515"/>
<circle cx="729.5" cy="607.5" r="7.5" fill="#151515"/>
<circle cx="542.5" cy="607.5" r="7.5" fill="#151515"/>
<circle cx="355.5" cy="607.5" r="7.5" fill="#151515"/>
<circle cx="168.5" cy="607.5" r="7.5" fill="#151515"/>
<circle cx="1104.5" cy="608.5" r="7.5" fill="#151515"/>
<circle cx="1291.5" cy="608.5" r="7.5" fill="#151515"/>
<circle cx="1478.5" cy="608.5" r="7.5" fill="#151515"/>
<circle cx="1665.5" cy="608.5" r="7.5" fill="#151515"/>
<circle cx="916.5" cy="732.5" r="7.5" fill="#151515"/>
<circle cx="728.5" cy="731.5" r="7.5" fill="#151515"/>
<circle cx="541.5" cy="731.5" r="7.5" fill="#151515"/>
<circle cx="354.5" cy="731.5" r="7.5" fill="#151515"/>
<circle cx="167.5" cy="731.5" r="7.5" fill="#151515"/>
<circle cx="1103.5" cy="732.5" r="7.5" fill="#151515"/>
<circle cx="1290.5" cy="732.5" r="7.5" fill="#151515"/>
<circle cx="1477.5" cy="732.5" r="7.5" fill="#151515"/>
<circle cx="1664.5" cy="732.5" r="7.5" fill="#151515"/>
<circle cx="917.5" cy="854.5" r="7.5" fill="#151515"/>
<circle cx="729.5" cy="853.5" r="7.5" fill="#151515"/>
<circle cx="542.5" cy="853.5" r="7.5" fill="#151515"/>
<circle cx="355.5" cy="853.5" r="7.5" fill="#151515"/>
<circle cx="168.5" cy="853.5" r="7.5" fill="#151515"/>
<circle cx="1104.5" cy="854.5" r="7.5" fill="#151515"/>
<circle cx="1291.5" cy="854.5" r="7.5" fill="#151515"/>
<circle cx="1478.5" cy="854.5" r="7.5" fill="#151515"/>
<circle cx="1665.5" cy="854.5" r="7.5" fill="#151515"/>
<circle cx="917.5" cy="978.5" r="7.5" fill="#151515"/>
<circle cx="729.5" cy="977.5" r="7.5" fill="#151515"/>
<circle cx="542.5" cy="977.5" r="7.5" fill="#151515"/>
<circle cx="355.5" cy="977.5" r="7.5" fill="#151515"/>
<circle cx="168.5" cy="977.5" r="7.5" fill="#151515"/>
<circle cx="1104.5" cy="978.5" r="7.5" fill="#151515"/>
<circle cx="1291.5" cy="978.5" r="7.5" fill="#151515"/>
<circle cx="1478.5" cy="978.5" r="7.5" fill="#151515"/>
<circle cx="1665.5" cy="978.5" r="7.5" fill="#151515"/>
<circle cx="917.5" cy="1098.5" r="7.5" fill="#151515"/>
<circle cx="729.5" cy="1097.5" r="7.5" fill="#151515"/>
<circle cx="542.5" cy="1097.5" r="7.5" fill="#151515"/>
<circle cx="355.5" cy="1097.5" r="7.5" fill="#151515"/>
<circle cx="168.5" cy="1097.5" r="7.5" fill="#151515"/>
<circle cx="1104.5" cy="1098.5" r="7.5" fill="#151515"/>
<circle cx="1291.5" cy="1098.5" r="7.5" fill="#151515"/>
<circle cx="1478.5" cy="1098.5" r="7.5" fill="#151515"/>
<circle cx="1665.5" cy="1098.5" r="7.5" fill="#151515"/>
</g>
<defs>
<clipPath id="clip0_243_159">
<rect width="1856" height="1200" fill="white"/>
</clipPath>
</defs>
</svg>
