<svg width="185" height="47" viewBox="0 0 185 47" fill="none" xmlns="http://www.w3.org/2000/svg">
<path d="M51.1943 34L46.7256 19.4385H46.6113C46.6283 19.7855 46.6536 20.3102 46.6875 21.0127C46.7298 21.7067 46.7679 22.4473 46.8018 23.2344C46.8356 24.0215 46.8525 24.7324 46.8525 25.3672V34H43.3359V15.4395H48.6934L53.0859 29.6328H53.1621L57.8213 15.4395H63.1787V34H59.5098V25.2148C59.5098 24.6309 59.5182 23.958 59.5352 23.1963C59.5605 22.4346 59.5902 21.7109 59.624 21.0254C59.6579 20.3314 59.6833 19.8109 59.7002 19.4639H59.5859L54.7998 34H51.1943ZM73.373 19.5146C75.2773 19.5146 76.7373 19.9294 77.7529 20.7588C78.7686 21.5882 79.2764 22.8493 79.2764 24.542V34H76.5723L75.8232 32.0703H75.7217C75.3154 32.5781 74.9007 32.9928 74.4775 33.3145C74.0544 33.6361 73.5677 33.873 73.0176 34.0254C72.4674 34.1777 71.7988 34.2539 71.0117 34.2539C70.1738 34.2539 69.4206 34.0931 68.752 33.7715C68.0918 33.4499 67.5713 32.959 67.1904 32.2988C66.8096 31.6302 66.6191 30.7839 66.6191 29.7598C66.6191 28.2533 67.1481 27.1445 68.2061 26.4336C69.264 25.7142 70.8509 25.3164 72.9668 25.2402L75.4297 25.1641V24.542C75.4297 23.7972 75.235 23.2513 74.8457 22.9043C74.4564 22.5573 73.9147 22.3838 73.2207 22.3838C72.5352 22.3838 71.8623 22.4811 71.2021 22.6758C70.542 22.8704 69.8818 23.1159 69.2217 23.4121L67.9395 20.7969C68.6927 20.3991 69.5348 20.0859 70.4658 19.8574C71.4053 19.6289 72.3743 19.5146 73.373 19.5146ZM75.4297 27.4238L73.9316 27.4746C72.679 27.5085 71.8073 27.7327 71.3164 28.1475C70.834 28.5622 70.5928 29.1081 70.5928 29.7852C70.5928 30.3776 70.7663 30.8008 71.1133 31.0547C71.4603 31.3001 71.9131 31.4229 72.4717 31.4229C73.3011 31.4229 73.9993 31.1774 74.5664 30.6865C75.1419 30.1956 75.4297 29.4974 75.4297 28.5918V27.4238ZM87.1475 19.8066V34H83.2754V19.8066H87.1475ZM85.2178 14.2461C85.7933 14.2461 86.2884 14.3815 86.7031 14.6523C87.1178 14.9147 87.3252 15.4098 87.3252 16.1377C87.3252 16.8571 87.1178 17.3564 86.7031 17.6357C86.2884 17.9066 85.7933 18.042 85.2178 18.042C84.6338 18.042 84.1344 17.9066 83.7197 17.6357C83.3135 17.3564 83.1104 16.8571 83.1104 16.1377C83.1104 15.4098 83.3135 14.9147 83.7197 14.6523C84.1344 14.3815 84.6338 14.2461 85.2178 14.2461ZM99.2842 19.54C100.799 19.54 102.018 19.9548 102.94 20.7842C103.863 21.6051 104.324 22.9255 104.324 24.7451V34H100.452V25.71C100.452 24.6943 100.266 23.9284 99.8936 23.4121C99.5296 22.8958 98.9541 22.6377 98.167 22.6377C96.9821 22.6377 96.1738 23.0397 95.7422 23.8438C95.3105 24.6478 95.0947 25.8073 95.0947 27.3223V34H91.2227V19.8066H94.1807L94.7012 21.6221H94.917C95.2217 21.1312 95.5983 20.7334 96.0469 20.4287C96.5039 20.124 97.0075 19.8997 97.5576 19.7559C98.1162 19.612 98.6917 19.54 99.2842 19.54ZM116.156 22.7139H112.805V34H108.933V22.7139H106.8V20.8477L108.933 19.8066V18.7656C108.933 17.5553 109.136 16.6159 109.542 15.9473C109.957 15.2702 110.536 14.7962 111.281 14.5254C112.035 14.2461 112.923 14.1064 113.947 14.1064C114.701 14.1064 115.386 14.1699 116.004 14.2969C116.622 14.4154 117.125 14.5508 117.515 14.7031L116.524 17.5469C116.228 17.4538 115.907 17.3691 115.56 17.293C115.213 17.2168 114.815 17.1787 114.366 17.1787C113.825 17.1787 113.427 17.3438 113.173 17.6738C112.927 17.9954 112.805 18.4102 112.805 18.918V19.8066H116.156V22.7139ZM126.312 19.54C126.507 19.54 126.731 19.5527 126.985 19.5781C127.248 19.5951 127.459 19.6204 127.62 19.6543L127.328 23.2852C127.201 23.2428 127.019 23.2132 126.782 23.1963C126.554 23.1709 126.355 23.1582 126.186 23.1582C125.686 23.1582 125.2 23.2217 124.726 23.3486C124.26 23.4756 123.841 23.6829 123.469 23.9707C123.096 24.25 122.8 24.6224 122.58 25.0879C122.368 25.5449 122.263 26.1077 122.263 26.7764V34H118.391V19.8066H121.323L121.895 22.1934H122.085C122.364 21.7109 122.711 21.2708 123.126 20.873C123.549 20.4668 124.027 20.1452 124.561 19.9082C125.102 19.6628 125.686 19.54 126.312 19.54ZM136.012 19.5146C137.916 19.5146 139.376 19.9294 140.392 20.7588C141.407 21.5882 141.915 22.8493 141.915 24.542V34H139.211L138.462 32.0703H138.36C137.954 32.5781 137.539 32.9928 137.116 33.3145C136.693 33.6361 136.206 33.873 135.656 34.0254C135.106 34.1777 134.438 34.2539 133.65 34.2539C132.812 34.2539 132.059 34.0931 131.391 33.7715C130.73 33.4499 130.21 32.959 129.829 32.2988C129.448 31.6302 129.258 30.7839 129.258 29.7598C129.258 28.2533 129.787 27.1445 130.845 26.4336C131.903 25.7142 133.49 25.3164 135.605 25.2402L138.068 25.1641V24.542C138.068 23.7972 137.874 23.2513 137.484 22.9043C137.095 22.5573 136.553 22.3838 135.859 22.3838C135.174 22.3838 134.501 22.4811 133.841 22.6758C133.181 22.8704 132.521 23.1159 131.86 23.4121L130.578 20.7969C131.331 20.3991 132.174 20.0859 133.104 19.8574C134.044 19.6289 135.013 19.5146 136.012 19.5146ZM138.068 27.4238L136.57 27.4746C135.318 27.5085 134.446 27.7327 133.955 28.1475C133.473 28.5622 133.231 29.1081 133.231 29.7852C133.231 30.3776 133.405 30.8008 133.752 31.0547C134.099 31.3001 134.552 31.4229 135.11 31.4229C135.94 31.4229 136.638 31.1774 137.205 30.6865C137.781 30.1956 138.068 29.4974 138.068 28.5918V27.4238ZM162.583 19.54C164.191 19.54 165.406 19.9548 166.227 20.7842C167.056 21.6051 167.471 22.9255 167.471 24.7451V34H163.586V25.71C163.586 24.6943 163.412 23.9284 163.065 23.4121C162.718 22.8958 162.181 22.6377 161.453 22.6377C160.429 22.6377 159.701 23.0059 159.27 23.7422C158.838 24.4701 158.622 25.5153 158.622 26.8779V34H154.75V25.71C154.75 25.0329 154.674 24.4658 154.521 24.0088C154.369 23.5518 154.136 23.209 153.823 22.9805C153.51 22.752 153.108 22.6377 152.617 22.6377C151.898 22.6377 151.331 22.8197 150.916 23.1836C150.51 23.5391 150.218 24.068 150.04 24.7705C149.871 25.4645 149.786 26.3151 149.786 27.3223V34H145.914V19.8066H148.872L149.393 21.6221H149.608C149.896 21.1312 150.256 20.7334 150.688 20.4287C151.128 20.124 151.61 19.8997 152.135 19.7559C152.66 19.612 153.193 19.54 153.734 19.54C154.775 19.54 155.656 19.7093 156.375 20.0479C157.103 20.3864 157.661 20.9111 158.051 21.6221H158.394C158.817 20.8942 159.413 20.3652 160.184 20.0352C160.962 19.7051 161.762 19.54 162.583 19.54ZM177.31 19.54C178.621 19.54 179.751 19.7939 180.699 20.3018C181.647 20.8011 182.379 21.529 182.896 22.4854C183.412 23.4417 183.67 24.6097 183.67 25.9893V27.8682H174.517C174.559 28.96 174.885 29.819 175.494 30.4453C176.112 31.0632 176.967 31.3721 178.059 31.3721C178.964 31.3721 179.794 31.279 180.547 31.0928C181.3 30.9066 182.075 30.6273 182.87 30.2549V33.251C182.168 33.598 181.431 33.8519 180.661 34.0127C179.899 34.1735 178.973 34.2539 177.881 34.2539C176.459 34.2539 175.198 33.9915 174.098 33.4668C173.006 32.9421 172.147 32.1423 171.521 31.0674C170.903 29.9925 170.594 28.6383 170.594 27.0049C170.594 25.346 170.873 23.9665 171.432 22.8662C171.999 21.7575 172.786 20.9281 173.793 20.3779C174.8 19.8193 175.972 19.54 177.31 19.54ZM177.335 22.2949C176.582 22.2949 175.955 22.5361 175.456 23.0186C174.965 23.501 174.682 24.2585 174.605 25.291H180.039C180.031 24.7155 179.925 24.2035 179.722 23.7549C179.527 23.3063 179.231 22.9508 178.833 22.6885C178.444 22.4261 177.944 22.2949 177.335 22.2949Z" fill="white"/>
<g clip-path="url(#clip0_238_2)">
<path d="M0 30.0743V15.0669L15.0918 0V14.8487L0 30.0743ZM16.3634 15.3292V30.1617L31.0365 15.3587L16.3634 15.3292V15.3292ZM15.0918 30.5765V16.5585L1.19707 30.5766H15.0918V30.5765ZM0 31.9682V46.9321L14.9144 31.9683H0V31.9682ZM16.3634 31.8716V47L31.9919 31.3025V16.1047L16.3634 31.8717V31.8716Z" fill="#09CF64"/>
</g>
<defs>
<clipPath id="clip0_238_2">
<rect width="32" height="47" fill="white"/>
</clipPath>
</defs>
</svg>
